<svg width="60" height="60" viewBox="0 0 60 60" fill="none" xmlns="http://www.w3.org/2000/svg">
<g clip-path="url(#clip0_5_62)">
<path d="M16.8387 55.0506H39.6387C39.7963 55.0504 39.9524 55.0814 40.0981 55.1416C40.2438 55.2018 40.3762 55.2901 40.4878 55.4014C40.5993 55.5128 40.6878 55.6451 40.7482 55.7907C40.8086 55.9363 40.8398 56.0924 40.8398 56.25C40.8398 56.5683 40.7134 56.8735 40.4884 57.0985C40.2633 57.3236 39.9581 57.45 39.6398 57.45H16.8387C16.5204 57.45 16.2152 57.3236 15.9901 57.0985C15.7651 56.8735 15.6387 56.5683 15.6387 56.25C15.6388 55.9319 15.7653 55.6268 15.9904 55.4019C16.2154 55.1769 16.5205 55.0506 16.8387 55.0506Z" fill="black"/>
<path d="M18.1295 49.0881C11.6385 45.4846 7.24574 38.5623 7.24574 30.6135V29.9543C7.24407 28.1734 7.46732 26.3994 7.91019 24.6744H48.835C49.2782 26.3992 49.5019 28.173 49.5006 29.9537V30.6135C49.5006 38.5617 45.1061 45.4846 38.6168 49.0881V49.7549C38.6168 50.4542 38.339 51.1249 37.8446 51.6193C37.3501 52.1138 36.6794 52.3916 35.9801 52.3916H20.7657C20.0664 52.3916 19.3957 52.1138 18.9012 51.6193C18.4067 51.1249 18.1289 50.4542 18.1289 49.7549V49.0881H18.1295Z" fill="#FFFEFE"/>
<path d="M48.8402 43.033C47.8971 43.0346 46.9631 42.8484 46.0927 42.4852L44.8171 41.9531L45.5203 40.7648C47.3409 37.6921 48.3004 34.1857 48.2982 30.6141V28.6523L49.63 28.7994C51.377 28.9914 52.9914 29.8219 54.1634 31.1316C55.3354 32.4412 55.9823 34.1377 55.9798 35.8951C55.9822 39.8303 52.7783 43.033 48.8402 43.033ZM48.3398 40.6055C48.5053 40.6226 48.6715 40.6312 48.8378 40.6313C49.9315 40.6307 50.9913 40.2521 51.8377 39.5596C52.6842 38.8672 53.2652 37.9034 53.4824 36.8316C53.6996 35.7597 53.5396 34.6458 53.0295 33.6784C52.5195 32.711 51.6907 31.9497 50.6835 31.5234C50.5548 34.6827 49.7559 37.7785 48.3398 40.6055Z" fill="black"/>
<path d="M48.835 24.6744C49.2782 26.3992 49.5019 28.173 49.5006 29.9537V30.6135C49.5006 38.5617 45.1061 45.4846 38.6168 49.0881V49.7549C38.6168 50.4542 38.339 51.1249 37.8446 51.6193C37.3501 52.1138 36.6794 52.3916 35.9801 52.3916H27.3668C26.6675 52.3916 25.9969 52.1138 25.5024 51.6193C25.0079 51.1249 24.7301 50.4542 24.7301 49.7549V49.0881C18.2391 45.4846 13.8463 38.5623 13.8463 30.6135V29.9543C13.8451 28.1736 14.0687 26.3998 14.5119 24.675L48.835 24.6744Z" fill="#B8917E"/>
<path d="M35.284 24.6744H48.835C49.2782 26.3992 49.5018 28.173 49.5006 29.9537V30.6135C49.5006 38.5617 45.1061 45.4846 38.6168 49.0881V49.7549C38.6168 50.4542 38.339 51.1249 37.8445 51.6193C37.35 52.1138 36.6794 52.3916 35.9801 52.3916H29.0332V48.4319C34.3391 40.633 36.4227 32.7139 35.284 24.6744Z" fill="#B0755E"/>
<path d="M35.9765 53.8477H20.7697C19.7515 53.8466 18.7754 53.4416 18.0554 52.7217C17.3355 52.0017 16.9305 51.0256 16.9294 50.0074V49.7772C13.6106 47.7972 10.8628 44.9894 8.95498 41.6286C7.04713 38.2678 6.04465 34.4692 6.04566 30.6047V29.9631C6.04456 27.9956 6.30284 26.0365 6.81382 24.1365L7.05288 23.2488H49.6927L49.9318 24.1365C50.4428 26.0365 50.701 27.9956 50.7 29.9631V30.6041C50.7016 34.4692 49.6995 38.2685 47.7918 41.6299C45.884 44.9914 43.136 47.7998 39.8167 49.7801V50.0104C39.8149 51.028 39.4096 52.0034 38.6897 52.7227C37.9699 53.442 36.9942 53.8466 35.9765 53.8477ZM8.91382 25.6494C8.6019 27.0661 8.44473 28.5125 8.44507 29.9631V30.6041C8.44373 34.162 9.39523 37.6554 11.2007 40.7211C13.0062 43.7869 15.5997 46.3132 18.7119 48.0375L19.3294 48.3803V50.0104C19.3298 50.3922 19.4816 50.7584 19.7516 51.0284C20.0217 51.2984 20.3878 51.4503 20.7697 51.4506H35.9765C36.3584 51.4503 36.7245 51.2984 36.9946 51.0284C37.2646 50.7584 37.4164 50.3922 37.4168 50.0104V48.3809L38.0343 48.0381C41.1462 46.3136 43.7396 43.7872 45.5448 40.7215C47.3501 37.6557 48.3014 34.1625 48.3 30.6047V29.9631C48.3003 28.5125 48.1431 27.0661 47.8312 25.6494H8.91382Z" fill="black"/>
<path d="M27.5361 23.8371C27.2855 23.8373 27.0412 23.7591 26.8373 23.6133C26.6335 23.4676 26.4804 23.2617 26.3994 23.0246C26.3185 22.7874 26.3139 22.5309 26.3862 22.2909C26.4585 22.051 26.6041 21.8397 26.8025 21.6867C27.6012 21.0709 28.1379 19.8879 28.1379 18.743C28.1379 17.6854 27.8104 16.4344 27.4078 15.9545C27.3458 15.8807 27.2928 15.7996 27.2502 15.7131C27.0861 15.3797 26.9045 15.0469 26.7129 14.6942C26.0004 13.3863 25.1924 11.9033 25.1924 10.091C25.1924 6.87599 25.8404 5.29806 27.9656 3.33517C28.2005 3.12645 28.5079 3.0182 28.8218 3.03367C29.1356 3.04913 29.4309 3.18709 29.6441 3.4179C29.8573 3.6487 29.9715 3.95394 29.9622 4.26803C29.9528 4.58212 29.8206 4.88 29.5939 5.09767C27.9668 6.60001 27.5924 7.53341 27.5924 10.0899C27.5924 11.291 28.1889 12.3856 28.8229 13.5469C28.9986 13.868 29.1779 14.1985 29.3473 14.5354C29.7334 15.0399 30.0375 15.7108 30.2514 16.5328C30.4387 17.255 30.5359 17.9975 30.5408 18.7436C30.5408 20.6238 29.6496 22.5252 28.2709 23.5881C28.0605 23.7505 27.8019 23.8382 27.5361 23.8371ZM18.293 23.8371C18.0424 23.8373 17.798 23.7591 17.5942 23.6133C17.3903 23.4676 17.2372 23.2617 17.1563 23.0246C17.0754 22.7874 17.0707 22.5309 17.143 22.2909C17.2153 22.051 17.3609 21.8397 17.5594 21.6867C18.358 21.0715 18.8947 19.8879 18.8947 18.743C18.8947 17.6854 18.5672 16.4344 18.1646 15.9545C18.1026 15.8807 18.0497 15.7996 18.007 15.7131C17.843 15.3797 17.6613 15.0469 17.4697 14.6942C16.7578 13.3858 15.9492 11.9027 15.9492 10.0904C15.9492 6.8754 16.5973 5.29747 18.7225 3.33458C18.9565 3.12022 19.266 3.00731 19.5831 3.02058C19.9002 3.03385 20.1991 3.1722 20.4145 3.40537C20.6298 3.63853 20.744 3.94751 20.7321 4.26467C20.7201 4.58184 20.583 4.88135 20.3508 5.09767C18.7236 6.60001 18.3492 7.53341 18.3492 10.0899C18.3492 11.291 18.9457 12.3856 19.5797 13.5469C19.7555 13.868 19.9348 14.1985 20.1041 14.5354C20.4902 15.0399 20.7943 15.7108 21.0082 16.5328C21.1955 17.255 21.2928 17.9975 21.2977 18.7436C21.2977 20.6238 20.4064 22.5252 19.0271 23.5881C18.8169 23.7504 18.5586 23.838 18.293 23.8371ZM36.7793 23.8371C36.5287 23.8373 36.2843 23.7591 36.0805 23.6133C35.8766 23.4676 35.7235 23.2617 35.6426 23.0246C35.5617 22.7874 35.5571 22.5309 35.6294 22.2909C35.7016 22.051 35.8472 21.8397 36.0457 21.6867C36.8443 21.0709 37.3811 19.8879 37.3811 18.743C37.3811 17.6854 37.0535 16.4344 36.651 15.9545C36.5889 15.8807 36.536 15.7996 36.4934 15.7131C36.3293 15.3797 36.1477 15.0469 35.9561 14.6942C35.2436 13.3863 34.4355 11.9033 34.4355 10.091C34.4355 6.87599 35.0836 5.29806 37.2088 3.33517C37.4437 3.12645 37.7511 3.0182 38.0649 3.03367C38.3788 3.04913 38.674 3.18709 38.8873 3.4179C39.1005 3.6487 39.2147 3.95394 39.2053 4.26803C39.1959 4.58212 39.0637 4.88 38.8371 5.09767C37.21 6.60001 36.8355 7.53341 36.8355 10.0899C36.8355 11.291 37.432 12.3856 38.066 13.5469C38.2418 13.868 38.4211 14.1985 38.5904 14.5354C38.9766 15.0399 39.2807 15.7108 39.4945 16.5328C39.6819 17.255 39.7791 17.9975 39.784 18.7436C39.784 20.6238 38.8928 22.5252 37.5141 23.5881C37.3037 23.7505 37.0451 23.8382 36.7793 23.8371Z" fill="black"/>
</g>
<defs>
<clipPath id="clip0_5_62">
<rect width="60" height="60" fill="white"/>
</clipPath>
</defs>
</svg>
