<svg width="600" height="900" viewBox="0 0 600 900" fill="none" xmlns="http://www.w3.org/2000/svg">
<g opacity="0.9" clip-path="url(#clip0_10_5)">
<path d="M134.7 780.2C128.2 786.5 120.9 791.1 112.7 793.1C104.5 795.1 95.4 794.5 88.4 790.3C81.4 786.2 76.5 778.5 73.7 770.3C70.9 762 70.2 753.2 72.3 744.4C74.4 735.7 79.3 727.1 86.8 721.8C94.4 716.6 104.7 714.9 113.7 717.1C122.8 719.2 130.7 725.3 137.1 732.8C143.4 740.3 148.3 749.2 147.7 757.5C147.2 765.9 141.3 773.9 134.7 780.2Z" stroke="#6F4E37" stroke-width="20"/>
<path d="M115.3 285.9C111 292.3 103.4 296.6 95.1 298.2C86.8 299.8 78 298.6 71.3 294.3C64.7 290 60.3 282.5 58.1 274.8C56 267.1 56 259 58.9 252.5C61.8 245.9 67.5 240.8 74.1 236.9C80.6 233 87.9 230.3 94.7 231.3C101.5 232.4 107.8 237.2 112.1 243.1C116.5 249 118.8 256 119.6 263.7C120.4 271.3 119.6 279.6 115.3 285.9Z" stroke="#6F4E37" stroke-width="20"/>
<path d="M407.4 205.8C403.1 210.7 397.2 214 390.8 215.2C384.4 216.4 377.5 215.4 371.9 212.3C366.3 209.1 362 203.7 360.2 197.7C358.5 191.8 359.3 185.2 361.4 178.9C363.6 172.7 366.9 166.8 372 164.2C377 161.7 383.7 162.6 389.7 164.3C395.7 166 401 168.4 405.5 172.5C409.9 176.6 413.4 182.3 413.8 188.4C414.3 194.5 411.7 200.9 407.4 205.8Z" stroke="#6F4E37" stroke-width="20"/>
<path d="M497.7 158.3C492 163.8 483.5 166.1 474.9 167.4C466.4 168.6 457.9 168.8 451.7 165.1C445.5 161.4 441.6 153.9 438.6 146C435.5 138 433.4 129.6 435.3 122C437.2 114.3 443.1 107.4 450.5 103.7C457.9 99.9999 466.6 99.3999 474.7 101.1C482.8 102.8 490.3 106.9 495.8 112.9C501.4 118.9 505.1 127 505.6 135.4C506 143.8 503.3 152.7 497.7 158.3Z" stroke="#6F4E37" stroke-width="20"/>
<path d="M355.7 318.5C352.1 323.3 345.5 325.9 339 326.6C332.6 327.3 326.1 326.1 320.1 323.3C314.1 320.4 308.6 315.8 306.6 310C304.6 304.3 306 297.3 308.9 291.6C311.8 285.8 316.2 281.3 321.4 278.6C326.6 275.8 332.6 274.7 338.7 275.3C344.8 276 351 278.3 354.7 282.7C358.4 287.1 359.7 293.5 360 300.2C360.2 306.9 359.4 313.7 355.7 318.5Z" stroke="#6F4E37" stroke-width="20"/>
<path d="M375.6 712.5C371.6 718.6 364.1 722.8 356.3 723.7C348.5 724.7 340.5 722.5 334.2 718.3C327.9 714 323.3 707.7 321.1 700.8C318.9 693.9 319.1 686.3 321.8 680.2C324.6 674.1 330 669.4 336.2 665C342.5 660.5 349.6 656.4 356.9 656.5C364.3 656.6 372 660.8 376 667.1C379.9 673.4 380.2 681.7 380.1 689.9C380.1 698.2 379.6 706.3 375.6 712.5Z" stroke="#6F4E37" stroke-width="20"/>
<path d="M467.9 385.5C462.6 392.1 454.3 396.5 445.5 398.1C436.7 399.7 427.3 398.6 420.5 394C413.6 389.4 409.3 381.4 405.9 372.8C402.6 364.2 400.1 355.1 402.6 347.5C405 339.9 412.5 333.9 420.4 330.4C428.4 327 436.8 326.1 444.9 327.5C453 328.9 460.6 332.7 466.1 338.7C471.5 344.6 474.7 352.8 475.2 361.4C475.6 369.9 473.3 378.9 467.9 385.5Z" stroke="#6F4E37" stroke-width="20"/>
<path d="M64.9 514.1C60.9 518.8 53.9 520.9 47.3 521.3C40.6 521.7 34.3 520.5 28.7 517.6C23.1 514.7 18.2 510.1 15.5 504.2C12.8 498.3 12.2 491.1 14.1 484.4C16 477.7 20.4 471.5 26.5 467.6C32.5 463.8 40.3 462.4 46.8 464.3C53.4 466.1 58.8 471.2 62.6 476.9C66.4 482.6 68.7 488.8 69.3 495.5C69.9 502.2 68.9 509.5 64.9 514.1Z" stroke="#6F4E37" stroke-width="20"/>
<path d="M166.1 407C162.7 410.7 157.3 412.6 151.6 413.9C145.9 415.3 139.8 416.1 135 413.8C130.2 411.6 126.7 406.3 124.6 400.5C122.4 394.7 121.6 388.4 123.6 383.1C125.5 377.9 130.2 373.6 135.5 371.3C140.7 368.9 146.5 368.4 152.2 369.3C157.8 370.1 163.4 372.2 166.7 376.2C170.1 380.3 171.2 386.1 171 391.9C170.9 397.6 169.5 403.2 166.1 407Z" stroke="#6F4E37" stroke-width="20"/>
<path d="M236.2 135.8C231.2 142.9 224.4 149.2 216.6 150.5C208.9 151.8 200.4 148.2 193.6 143.1C186.9 138 182 131.5 179.3 124.2C176.7 116.9 176.3 108.7 178.2 100.5C180.1 92.2 184.2 83.8 191 79.1C197.9 74.4 207.5 73.4 216.1 75.5C224.7 77.6 232.3 82.8 237.3 89.5C242.3 96.3 244.8 104.6 244.5 112.8C244.2 120.9 241.2 128.7 236.2 135.8Z" stroke="#6F4E37" stroke-width="20"/>
<path d="M341.6 84.6C337 89.4 331 92.4 324.7 93.5C318.4 94.5 311.8 93.5 305.2 90.9C298.6 88.2 291.9 83.9 288.4 77.5C285 71.1 284.7 62.6 287.5 55.3C290.3 48 296.1 41.9 303.1 38.2C310 34.6 318.1 33.5 325.8 34.7C333.5 36 340.8 39.7 345.2 45.5C349.6 51.2 351 59.1 350.1 66.3C349.3 73.4 346.1 79.9 341.6 84.6Z" stroke="#6F4E37" stroke-width="20"/>
<path d="M534.1 278.5C529.9 283.2 524 286.3 517.6 287.6C511.2 288.8 504.4 288.3 498.8 285.3C493.2 282.3 488.8 276.8 486.4 270.6C484 264.3 483.6 257.2 486 251.3C488.3 245.4 493.4 240.6 499.3 236.7C505.3 232.9 512.1 229.9 519 230.4C525.8 230.9 532.6 234.9 536.7 240.5C540.7 246.2 541.9 253.6 541.3 260.5C540.7 267.4 538.3 273.8 534.1 278.5Z" stroke="#6F4E37" stroke-width="20"/>
<path d="M248.4 635.9C244.6 640.1 238.5 642.2 232.4 643.1C226.3 644 220.1 643.7 215.8 640.8C211.4 637.9 208.9 632.4 206.6 626.7C204.4 620.9 202.5 615 204 609.9C205.4 604.9 210.3 600.8 215.7 597.7C221.1 594.6 227 592.6 232.6 593.5C238.1 594.4 243.2 598.2 246.9 602.9C250.7 607.6 253 613.3 253.4 619.3C253.8 625.3 252.2 631.6 248.4 635.9Z" stroke="#6F4E37" stroke-width="20"/>
<path d="M274.9 803.5C270.3 809.8 263.5 814.9 255.7 816.7C247.9 818.6 239.2 817.3 232.9 812.8C226.5 808.4 222.7 800.9 219.3 792.8C215.9 784.7 213.1 776.1 215.4 769.3C217.8 762.6 225.5 757.6 233.3 753.3C241.1 748.9 249.1 745.1 257 745.8C264.9 746.4 272.6 751.5 277.1 758.3C281.6 765.1 282.9 773.5 282.4 781.6C281.8 789.6 279.5 797.2 274.9 803.5Z" stroke="#6F4E37" stroke-width="20"/>
<path d="M554.6 695.5C551.2 700.3 544.6 702.8 537.8 703.8C531.1 704.9 524.2 704.6 519.4 701.3C514.6 698 512 691.8 509.6 685.4C507.2 679.1 504.9 672.5 506.2 666.4C507.4 660.3 512.1 654.6 517.9 652.4C523.7 650.1 530.5 651.2 536.8 652.8C543 654.5 548.7 656.8 552.2 660.9C555.8 665.1 557.2 671 557.7 677.5C558.3 683.9 558 690.8 554.6 695.5Z" stroke="#6F4E37" stroke-width="20"/>
<path d="M54.8 859.1C51 864.3 45.8 868.7 39.9 869.7C34.1 870.8 27.6 868.3 22.2 864.8C16.7 861.2 12.2 856.6 9.50001 850.7C6.70001 844.9 5.60001 837.9 7.70001 832.1C9.80001 826.2 15.1 821.5 21 819.1C26.8 816.7 33.2 816.5 39.5 817.4C45.9 818.3 52.2 820.3 56.1 824.6C60 828.8 61.5 835.4 61.1 841.7C60.7 848 58.5 853.9 54.8 859.1Z" stroke="#6F4E37" stroke-width="20"/>
<path d="M57.9 685.9C53.5 690.9 46.4 693.6 39.2 694.7C32 695.8 24.7 695.3 19.6 691.8C14.5 688.3 11.5 681.8 10 675.4C8.60002 669.1 8.50002 662.9 10.4 657.2C12.2 651.4 15.8 646.1 21.1 642C26.3 637.9 33.2 634.9 39.3 635.9C45.5 637 51 642 55.3 647.7C59.6 653.4 62.7 659.7 63.4 666.6C64 673.4 62.3 680.8 57.9 685.9Z" stroke="#6F4E37" stroke-width="20"/>
<path d="M310.3 435.7C307 440.6 301.1 444 294.9 444.8C288.8 445.7 282.3 444 277.5 440.6C272.7 437.1 269.5 431.9 266.9 426C264.3 420.2 262.4 413.7 264.2 408.5C265.9 403.2 271.4 399.2 277.2 396.2C282.9 393.1 289 391 295.1 391.6C301.2 392.1 307.2 395.3 310.5 400.2C313.8 405 314.4 411.5 314.4 418C314.3 424.4 313.6 430.8 310.3 435.7Z" stroke="#6F4E37" stroke-width="20"/>
<path d="M618.6 840.5C614.2 847.5 606.8 853.2 598.2 855.4C589.6 857.6 579.8 856.3 571.9 851.7C563.9 847.2 557.7 839.5 556.1 831.2C554.4 822.9 557.2 814.1 560.7 806.1C564.2 798.1 568.5 790.9 574.9 786.6C581.4 782.3 590 780.9 598.2 782.2C606.5 783.6 614.4 787.6 618.9 793.8C623.5 800.1 624.7 808.5 624.5 816.9C624.4 825.3 623 833.6 618.6 840.5Z" stroke="#6F4E37" stroke-width="20"/>
</g>
<defs>
<clipPath id="clip0_10_5">
<rect width="900" height="600" fill="white" transform="matrix(0 1 -1 0 600 0)"/>
</clipPath>
</defs>
</svg>
