<svg width="1440" height="168" viewBox="0 0 1440 168" fill="none" xmlns="http://www.w3.org/2000/svg">
<path d="M-6 151.165H114.5V101.805H235V136.768H355.5V111.06H476V130.598H596.5V93.5783H717V125.457H837.5V110.032H958V167.618H1078.5V127.513H1199V125.457H1319.5V141.91H1440V98.72V0H1319.5H1199H1078.5H958H837.5H717H596.5H476H355.5H235H114.5H-6V151.165Z" fill="#BFA399"/>
<path d="M-6 67.87H114.5V86.38H235V70.955H355.5V124.428H476V128.542H596.5V117.23H717V76.0967H837.5V130.598H958V86.38H1078.5V67.87H1199V123.4H1319.5V106.947H1440V93.5783V0H1319.5H1199H1078.5H958H837.5H717H596.5H476H355.5H235H114.5H-6V67.87Z" fill="#AE9389"/>
<path d="M-6 56.5583H114.5V46.275H235V65.8133H355.5V59.6433H476V75.0683H596.5V44.2183H717V64.785H837.5V39.0767H958V70.955H1078.5V50.3883H1199V45.2467H1319.5V60.6717H1440V85.3517V0H1319.5H1199H1078.5H958H837.5H717H596.5H476H355.5H235H114.5H-6V56.5583Z" fill="#9D8379"/>
<path d="M-6 25.7083H114.5V24.68H235V46.275H355.5V14.3967H476V57.5867H596.5V48.3317H717V33.935H837.5V51.4167H958V28.7933H1078.5V27.765H1199V38.0483H1319.5V35.9917H1440V17.4817V0H1319.5H1199H1078.5H958H837.5H717H596.5H476H355.5H235H114.5H-6V25.7083Z" fill="#8C7369"/>
</svg>
